<!DOCTYPE svg PUBLIC "-//W3C//DTD SVG 20010904//EN" "http://www.w3.org/TR/2001/REC-SVG-20010904/DTD/svg10.dtd">
<svg version="1.0" xmlns="http://www.w3.org/2000/svg" width="200px" height="200px" viewBox="0 0 2000 2000" preserveAspectRatio="xMidYMid meet">
<g id="layer101" fill="#f34f29" stroke="none">
 <path d="M965 1859 c-32 -18 -775 -761 -791 -791 -8 -15 -14 -42 -14 -60 0 -29 27 -60 272 -305 l273 -273 93 92 c84 84 93 96 89 123 -8 49 3 84 40 122 l34 37 0 228 0 229 -30 25 c-45 38 -57 92 -32 148 23 52 61 76 122 76 35 0 48 -6 80 -39 33 -33 39 -45 39 -82 0 -46 -28 -105 -55 -115 -13 -5 -15 -41 -15 -237 l0 -232 88 88 c85 85 87 88 84 129 -7 81 76 153 153 134 41 -10 92 -66 100 -108 15 -77 -55 -152 -135 -147 -39 3 -44 0 -130 -86 -86 -85 -90 -92 -90 -133 0 -84 -52 -135 -135 -134 -39 1 -46 -4 -136 -94 l-94 -95 96 -94 c104 -102 127 -113 187 -81 33 18 775 762 791 793 6 12 11 36 11 55 0 30 -35 68 -398 431 -370 370 -401 399 -438 403 -21 2 -48 -1 -59 -7z"/>
 </g>

</svg>